<svg width="98" height="29" viewBox="0 0 98 29" fill="none" xmlns="http://www.w3.org/2000/svg">
<path d="M7.05473 7.77441C5.4434 7.77441 4.17484 8.29004 3.24906 9.32129C2.32328 10.3525 1.86039 11.7646 1.86039 13.5576C1.86039 15.3916 2.29691 16.8154 3.16996 17.8291C4.04301 18.8428 5.29105 19.3496 6.9141 19.3496C7.99223 19.3496 8.98246 19.2119 9.8848 18.9365V19.7275C9.03519 20.0264 7.97465 20.1758 6.70316 20.1758C4.89848 20.1758 3.47758 19.5928 2.44047 18.4268C1.40336 17.2607 0.884804 15.6318 0.884804 13.54C0.884804 12.2334 1.1309 11.082 1.62309 10.0859C2.12113 9.08984 2.83305 8.32227 3.75883 7.7832C4.69047 7.23828 5.77152 6.96582 7.00199 6.96582C8.2559 6.96582 9.37797 7.2002 10.3682 7.66895L10.0079 8.47754C9.07035 8.00879 8.08598 7.77441 7.05473 7.77441ZM20.4524 20V13.8037C20.4524 12.8428 20.2503 12.1455 19.846 11.7119C19.4417 11.2725 18.8147 11.0527 17.9651 11.0527C16.8225 11.0527 15.9846 11.3428 15.4514 11.9229C14.9241 12.4971 14.6604 13.4316 14.6604 14.7266V20H13.7903V6.32422H14.6604V10.6748L14.6165 11.8965H14.678C15.0354 11.3223 15.4866 10.9062 16.0315 10.6484C16.5764 10.3906 17.2532 10.2617 18.0618 10.2617C20.2298 10.2617 21.3137 11.4248 21.3137 13.751V20H20.4524ZM26.5376 20H25.6675V10.4463H26.5376V20ZM25.5445 7.79199C25.5445 7.22949 25.729 6.94824 26.0982 6.94824C26.2798 6.94824 26.4204 7.02148 26.52 7.16797C26.6255 7.31445 26.6782 7.52246 26.6782 7.79199C26.6782 8.05566 26.6255 8.26367 26.52 8.41602C26.4204 8.56836 26.2798 8.64453 26.0982 8.64453C25.729 8.64453 25.5445 8.36035 25.5445 7.79199ZM36.8064 20L36.5867 18.4883H36.5164C36.0359 19.1035 35.5408 19.54 35.031 19.7979C34.5271 20.0498 33.9295 20.1758 33.238 20.1758C32.3005 20.1758 31.5711 19.9355 31.0496 19.4551C30.5281 18.9746 30.2673 18.3096 30.2673 17.46C30.2673 16.5283 30.6541 15.8047 31.4275 15.2891C32.2068 14.7734 33.3318 14.501 34.8025 14.4717L36.6218 14.4189V13.7861C36.6218 12.8779 36.4373 12.1924 36.0681 11.7295C35.699 11.2666 35.1043 11.0352 34.2839 11.0352C33.3992 11.0352 32.4822 11.2812 31.533 11.7734L31.2078 11.0176C32.2566 10.5254 33.2937 10.2793 34.3191 10.2793C35.3679 10.2793 36.1502 10.5518 36.6658 11.0967C37.1873 11.6416 37.448 12.4912 37.448 13.6455V20H36.8064ZM33.2908 19.3848C34.3103 19.3848 35.113 19.0947 35.699 18.5146C36.2908 17.9287 36.5867 17.1172 36.5867 16.0801V15.1396L34.9168 15.21C33.575 15.2744 32.617 15.4854 32.0427 15.8428C31.4744 16.1943 31.1902 16.7451 31.1902 17.4951C31.1902 18.0928 31.3718 18.5586 31.7351 18.8926C32.1043 19.2207 32.6228 19.3848 33.2908 19.3848ZM47.752 20H40.9316V19.4463L46.6006 11.2197H41.3447V10.4463H47.7344V11L42.0303 19.2266H47.752V20ZM59.2688 15.21C59.2688 16.7686 58.8909 17.9873 58.135 18.8662C57.3791 19.7393 56.3362 20.1758 55.0061 20.1758C54.1682 20.1758 53.4299 19.9736 52.7912 19.5693C52.1526 19.165 51.6633 18.585 51.3235 17.8291C50.9836 17.0732 50.8137 16.2002 50.8137 15.21C50.8137 13.6514 51.1916 12.4385 51.9475 11.5713C52.7034 10.6982 53.7405 10.2617 55.0588 10.2617C56.3713 10.2617 57.3996 10.7041 58.1438 11.5889C58.8938 12.4678 59.2688 13.6748 59.2688 15.21ZM51.7278 15.21C51.7278 16.5225 52.0149 17.5479 52.5891 18.2861C53.1692 19.0186 53.9866 19.3848 55.0412 19.3848C56.0959 19.3848 56.9104 19.0186 57.4846 18.2861C58.0647 17.5479 58.3547 16.5225 58.3547 15.21C58.3547 13.8916 58.0618 12.8691 57.4758 12.1426C56.8957 11.416 56.0784 11.0527 55.0237 11.0527C53.969 11.0527 53.1545 11.416 52.5803 12.1426C52.012 12.8633 51.7278 13.8857 51.7278 15.21ZM64.0268 15.8076L68.9048 10.4463H69.9595L66.1977 14.5244L70.2847 20H69.2388L65.6089 15.1748L64.0444 16.5986V20H63.1743V6.32422H64.0444V13.1797L63.9829 15.8076H64.0268ZM78.9538 20L78.7341 18.4883H78.6638C78.1833 19.1035 77.6882 19.54 77.1784 19.7979C76.6745 20.0498 76.0769 20.1758 75.3855 20.1758C74.448 20.1758 73.7185 19.9355 73.197 19.4551C72.6755 18.9746 72.4148 18.3096 72.4148 17.46C72.4148 16.5283 72.8015 15.8047 73.5749 15.2891C74.3542 14.7734 75.4792 14.501 76.9499 14.4717L78.7693 14.4189V13.7861C78.7693 12.8779 78.5847 12.1924 78.2155 11.7295C77.8464 11.2666 77.2517 11.0352 76.4314 11.0352C75.5466 11.0352 74.6296 11.2812 73.6804 11.7734L73.3552 11.0176C74.404 10.5254 75.4411 10.2793 76.4665 10.2793C77.5154 10.2793 78.2976 10.5518 78.8132 11.0967C79.3347 11.6416 79.5954 12.4912 79.5954 13.6455V20H78.9538ZM75.4382 19.3848C76.4577 19.3848 77.2605 19.0947 77.8464 18.5146C78.4382 17.9287 78.7341 17.1172 78.7341 16.0801V15.1396L77.0642 15.21C75.7224 15.2744 74.7644 15.4854 74.1902 15.8428C73.6218 16.1943 73.3376 16.7451 73.3376 17.4951C73.3376 18.0928 73.5193 18.5586 73.8825 18.8926C74.2517 19.2207 74.7702 19.3848 75.4382 19.3848ZM95.8935 20V13.7334C95.8935 12.8018 95.7119 12.1221 95.3486 11.6943C94.9853 11.2666 94.4287 11.0527 93.6787 11.0527C92.7002 11.0527 91.9765 11.3223 91.5078 11.8613C91.039 12.4004 90.8046 13.2471 90.8046 14.4014V20H89.917V13.4697C89.917 11.8584 89.1787 11.0527 87.7021 11.0527C86.7002 11.0527 85.9707 11.3457 85.5136 11.9316C85.0566 12.5117 84.8281 13.4434 84.8281 14.7266V20H83.958V10.4463H84.6787L84.8632 11.7559H84.916C85.1796 11.2812 85.5546 10.915 86.041 10.6572C86.5273 10.3936 87.0634 10.2617 87.6494 10.2617C89.1552 10.2617 90.122 10.8271 90.5498 11.958H90.5849C90.8955 11.4131 91.3115 10.9941 91.833 10.7012C92.3603 10.4082 92.958 10.2617 93.6259 10.2617C94.6689 10.2617 95.4511 10.54 95.9726 11.0967C96.4941 11.6533 96.7548 12.5381 96.7548 13.751V20H95.8935Z" fill="white"/>
<line x1="1" y1="28.5" x2="56" y2="28.5" stroke="white"/>
<line x1="43" y1="0.5" x2="98" y2="0.5" stroke="white"/>
</svg>
