<svg height="512pt" viewBox="0 -77 512 512" width="512pt" xmlns="http://www.w3.org/2000/svg"><path d="m486.398438 221.867188h-460.796876c-14.132812.015624-25.585937 11.46875-25.601562 25.597656v85.335937c.015625 14.132813 11.46875 25.582031 25.601562 25.597657h460.796876c14.132812-.015626 25.585937-11.464844 25.601562-25.597657v-85.335937c-.015625-14.128906-11.46875-25.582032-25.601562-25.597656zm8.535156 110.933593c-.007813 4.710938-3.824219 8.527344-8.535156 8.53125h-460.796876c-4.710937-.003906-8.527343-3.820312-8.535156-8.53125v-85.335937c.007813-4.707032 3.824219-8.527344 8.535156-8.53125h51.199219v17.066406c0 4.710938 3.820313 8.535156 8.53125 8.535156 4.714844 0 8.535157-3.824218 8.535157-8.535156v-17.066406h17.066406v25.601562c0 4.710938 3.820312 8.53125 8.53125 8.53125 4.714844 0 8.535156-3.820312 8.535156-8.53125v-25.601562h17.066406v17.066406c0 4.710938 3.820313 8.535156 8.535156 8.535156 4.710938 0 8.53125-3.824218 8.53125-8.535156v-17.066406h17.066407v25.601562c0 4.710938 3.820312 8.53125 8.535156 8.53125 4.710937 0 8.53125-3.820312 8.53125-8.53125v-25.601562h17.066406v17.066406c0 4.710938 3.820313 8.535156 8.535157 8.535156 4.710937 0 8.53125-3.824218 8.53125-8.535156v-17.066406h17.066406v25.601562c0 4.710938 3.824218 8.53125 8.535156 8.53125s8.535156-3.820312 8.535156-8.53125v-25.601562h17.066406v17.066406c0 4.710938 3.820313 8.535156 8.53125 8.535156 4.714844 0 8.535157-3.824218 8.535157-8.535156v-17.066406h17.066406v25.601562c0 4.710938 3.820313 8.53125 8.53125 8.53125 4.714844 0 8.535156-3.820312 8.535156-8.53125v-25.601562h17.066407v17.066406c0 4.710938 3.820312 8.535156 8.53125 8.535156 4.714843 0 8.535156-3.824218 8.535156-8.535156v-17.066406h17.066406v25.601562c0 4.710938 3.820312 8.53125 8.535156 8.53125 4.710938 0 8.53125-3.820312 8.53125-8.53125v-25.601562h17.066406v17.066406c0 4.710938 3.820313 8.535156 8.535157 8.535156 4.710937 0 8.53125-3.824218 8.53125-8.535156v-17.066406h25.601562v25.601562c0 4.710938 3.820313 8.53125 8.53125 8.53125 4.714844 0 8.535157-3.820312 8.535157-8.53125v-25.601562h8.53125c4.710937.003906 8.527343 3.824218 8.535156 8.53125zm0 0"/><path d="m59.734375 264.535156c-14.140625 0-25.601563 11.460938-25.601563 25.597656 0 14.140626 11.460938 25.601563 25.601563 25.601563 14.136719 0 25.597656-11.460937 25.597656-25.601563-.015625-14.132812-11.464843-25.582031-25.597656-25.597656zm0 34.132813c-4.714844 0-8.535156-3.820313-8.535156-8.535157 0-4.710937 3.820312-8.53125 8.535156-8.53125 4.710937 0 8.53125 3.820313 8.53125 8.53125-.003906 4.710938-3.820313 8.527344-8.53125 8.535157zm0 0"/><path d="m17.066406 204.800781h85.332032c9.421874-.011719 17.058593-7.644531 17.066406-17.066406v-85.335937c-.007813-9.421876-7.644532-17.054688-17.066406-17.066407h-85.332032c-9.421875.011719-17.0585935 7.644531-17.066406 17.066407v85.335937c.0078125 9.421875 7.644531 17.054687 17.066406 17.066406zm0-33.394531 17.066406-27.308594 27.269532 43.636719h-44.335938zm64.464844 16.328125-6.382812-10.210937 10.195312-16.34375 16.59375 26.554687zm20.867188-85.335937.007812 53.886718-6.214844-9.945312c-2.328125-3.753906-6.4375-6.03125-10.855468-6.015625h-.003907c-4.417969-.011719-8.53125 2.269531-10.855469 6.027343l-9.398437 15.0625-20.09375-32.152343c-2.480469-3.539063-6.53125-5.648438-10.851563-5.648438-4.324218 0-8.375 2.109375-10.855468 5.648438l-6.210938 9.945312v-36.808593zm0 0"/><path d="m238.078125 204.800781c.238281.019531.449219.167969.683594.167969.386719-.03125.769531-.085938 1.144531-.167969h33.160156c9.421875-.011719 17.058594-7.644531 17.066406-17.066406v-119.46875c-.007812-9.421875-7.644531-17.054687-17.066406-17.066406h-119.464844c-9.421874.011719-17.058593 7.644531-17.066406 17.066406v119.46875c.007813 9.421875 7.644532 17.054687 17.066406 17.066406zm-84.476563-46.242187 25.589844-40.246094 44.054688 69.421875h-69.644532zm89.855469 29.175781-11.90625-18.765625 15.914063-25.050781 25.617187 40.339843v3.476563zm-4.523437-102.402344c0 4.714844-3.820313 8.535157-8.535156 8.535157-4.710938 0-8.53125-3.820313-8.53125-8.535157 0-4.710937 3.820312-8.53125 8.53125-8.53125 4.710937.003907 8.527343 3.820313 8.535156 8.53125zm-27.476563-17.066406c-9.296875 10.230469-8.796875 25.988281 1.132813 35.605469 9.925781 9.617187 25.695312 9.617187 35.621094 0 9.929687-9.617188 10.429687-25.375 1.132812-35.605469h23.722656l.007813 84.148437-14.804688-23.320312c-2.339843-3.703125-6.421875-5.945312-10.804687-5.9375-4.382813-.007812-8.460938 2.234375-10.800782 5.9375l-15.222656 23.949219-31.441406-49.546875c-2.339844-3.703125-6.417969-5.949219-10.796875-5.9375h-.003906c-4.378907-.011719-8.457031 2.226562-10.800781 5.929687l-14.796876 23.265625v-58.488281zm0 0"/><path d="m494.933594 0h-170.667969c-9.421875.0078125-17.054687 7.644531-17.066406 17.066406v170.667969c.011719 9.421875 7.644531 17.054687 17.066406 17.066406h170.667969c9.421875-.011719 17.058594-7.644531 17.066406-17.066406v-170.667969c-.007812-9.421875-7.644531-17.0585935-17.066406-17.066406zm0 17.066406.007812 130.230469-28.039062-44.15625c-2.484375-3.492187-6.507813-5.566406-10.792969-5.570313-4.289063 0-8.3125 2.070313-10.800781 5.5625l-24.9375 39.160157-46.476563-73.273438c-2.339843-3.703125-6.417969-5.945312-10.796875-5.9375h-.011718c-4.378907-.011719-8.457032 2.226563-10.796876 5.925781l-28.023437 44.027344v-95.96875zm-170.667969 127.757813 38.816406-60.988281 50.230469 79.191406.027344.039062 15.644531 24.667969h-104.71875zm124.929687 42.910156-18.726562-29.527344 25.628906-40.25 38.851563 61.183594v8.59375zm0 0"/><path d="m76.800781 119.464844c0 4.714844-3.820312 8.535156-8.535156 8.535156-4.710937 0-8.53125-3.820312-8.53125-8.535156 0-4.710938 3.820313-8.53125 8.53125-8.53125 4.714844 0 8.535156 3.820312 8.535156 8.53125zm0 0"/><path d="m430.933594 85.332031c16.496094 0 29.867187-13.371093 29.867187-29.867187 0-16.492188-13.371093-29.863282-29.867187-29.863282s-29.867188 13.371094-29.867188 29.863282c.019532 16.488281 13.378906 29.847656 29.867188 29.867187zm0-42.664062c7.070312 0 12.800781 5.730469 12.800781 12.796875 0 7.070312-5.730469 12.800781-12.800781 12.800781-7.070313 0-12.800782-5.730469-12.800782-12.800781.007813-7.0625 5.734376-12.789063 12.800782-12.796875zm0 0"/></svg>